<?xml version="1.0" standalone="no"?>
<!DOCTYPE svg PUBLIC "-//W3C//DTD SVG 20010904//EN"
 "http://www.w3.org/TR/2001/REC-SVG-20010904/DTD/svg10.dtd">
<svg version="1.0" xmlns="http://www.w3.org/2000/svg"
 width="267.000000pt" height="267.000000pt" viewBox="0 0 267.000000 267.000000"
 preserveAspectRatio="xMidYMid meet">
<metadata>
Created by potrace 1.11, written by Peter Selinger 2001-2013
</metadata>
<g transform="translate(0.000000,267.000000) scale(0.100000,-0.100000)"
fill="#000000" stroke="none">
<path d="M1717 2524 c-37 -34 -80 -122 -106 -217 -28 -103 -48 -142 -65 -128
-10 8 -21 7 -42 -4 -21 -11 -44 -14 -80 -9 -28 3 -76 1 -105 -6 -44 -10 -73
-9 -156 3 -66 10 -136 14 -202 10 l-101 -5 -41 37 c-55 49 -126 93 -169 105
-91 24 -208 -64 -240 -181 -8 -27 -6 -52 8 -105 11 -38 22 -76 25 -84 5 -10
-10 -33 -43 -68 -27 -29 -67 -74 -87 -100 -21 -26 -41 -49 -44 -52 -3 -3 -19
-27 -34 -55 -16 -27 -44 -73 -62 -102 -19 -28 -36 -60 -38 -71 -2 -11 -8 -28
-13 -38 -16 -33 -44 -126 -38 -131 2 -3 0 -17 -5 -32 -16 -41 -23 -213 -11
-252 6 -19 14 -47 16 -63 9 -53 40 -130 71 -178 24 -37 139 -182 198 -248 52
-59 178 -135 196 -117 13 13 34 -30 27 -58 -7 -26 1 -55 15 -55 5 0 9 9 9 21
0 11 4 17 10 14 6 -4 10 -26 9 -49 -3 -47 5 -66 27 -66 9 0 14 11 14 30 0 17
5 30 10 30 6 0 10 -6 10 -14 0 -19 39 -66 55 -66 7 0 15 9 18 21 5 17 9 19 25
10 13 -7 22 -7 30 1 17 17 15 31 -10 82 -18 38 -19 47 -8 61 11 13 23 15 59 9
25 -4 62 -8 82 -8 45 -2 110 -36 177 -93 29 -25 55 -43 58 -40 12 12 62 -15
73 -39 7 -17 17 -24 27 -20 10 4 16 -3 21 -24 6 -32 27 -40 37 -15 8 22 26 18
26 -5 0 -15 7 -20 26 -20 14 0 23 4 19 9 -10 18 16 23 34 7 22 -20 35 -20 50
-2 9 10 8 16 -3 26 -9 6 -20 9 -25 5 -6 -3 -9 0 -6 8 3 7 -12 29 -34 49 -60
54 -69 122 -19 146 30 14 78 -1 78 -25 0 -18 40 -16 61 3 16 14 19 13 37 -6
11 -12 26 -20 33 -19 8 2 29 -11 48 -29 27 -26 41 -32 78 -32 32 0 44 4 40 13
-2 6 -1 21 4 32 8 19 8 19 15 -2 7 -24 19 -29 29 -13 7 12 -44 70 -62 70 -14
0 -33 31 -33 55 0 10 16 33 35 52 33 33 45 50 26 39 -4 -3 -6 6 -3 20 3 19 9
23 24 18 15 -4 18 -3 13 6 -5 8 -2 18 6 24 8 6 27 31 41 56 14 25 35 54 46 66
11 11 27 34 36 50 9 16 20 36 25 44 5 8 22 55 36 103 20 64 31 87 41 83 11 -4
11 -2 2 14 -9 14 -9 22 1 33 9 12 9 16 -1 20 -7 2 -10 7 -7 11 8 8 106 -21
152 -45 20 -11 37 -18 37 -16 0 10 -74 48 -128 66 -79 27 -82 46 -6 36 33 -4
77 -9 99 -10 22 -1 76 -16 120 -33 119 -45 125 -46 64 -13 -70 37 -189 76
-198 65 -3 -5 -34 -4 -71 3 l-65 13 59 -6 c72 -6 70 2 -4 16 -49 9 -69 22 -70
43 0 4 46 8 103 8 84 1 94 3 57 10 -25 4 -71 8 -102 8 -45 1 -58 4 -58 16 0 9
6 17 13 19 6 2 28 9 47 15 33 10 32 10 -17 6 -62 -5 -74 15 -20 33 l32 12 -32
-5 c-38 -5 -43 2 -10 15 20 9 20 10 -8 7 -27 -2 -30 1 -43 48 -19 73 -58 166
-93 225 -13 22 -21 51 -21 80 1 26 -6 59 -14 75 -18 34 -18 79 -1 97 33 32 69
132 88 242 9 54 9 92 -1 175 -7 58 -16 116 -21 128 -13 35 -91 115 -126 129
-45 19 -54 18 -86 -12z"/>
<path d="M2250 1201 c8 -6 28 -11 44 -11 39 0 31 6 -19 14 -29 5 -36 4 -25 -3z"/>
<path d="M2343 1183 c9 -2 23 -2 30 0 6 3 -1 5 -18 5 -16 0 -22 -2 -12 -5z"/>
<path d="M2408 1173 c7 -3 16 -2 19 1 4 3 -2 6 -13 5 -11 0 -14 -3 -6 -6z"/>
</g>
</svg>
